<svg width="697" height="697" viewBox="0 0 697 697" fill="none" xmlns="http://www.w3.org/2000/svg">
<g clip-path="url(#clip0_2302_2090)">
<path d="M192.193 602.127C192.28 602.649 192.063 602.91 191.542 602.909H185.242C185.052 602.925 184.864 602.866 184.718 602.744C184.571 602.622 184.479 602.447 184.46 602.258C183.851 599.073 182.903 596.829 181.615 595.526C180.887 594.847 180.028 594.323 179.091 593.987C178.154 593.651 177.159 593.51 176.165 593.572H174.471V602.214C174.471 602.678 174.224 602.909 173.733 602.909H168.133C168.038 602.923 167.941 602.915 167.85 602.886C167.759 602.856 167.676 602.805 167.608 602.738C167.54 602.67 167.489 602.588 167.458 602.497C167.428 602.406 167.419 602.309 167.433 602.214V573.2C167.418 573.105 167.426 573.007 167.456 572.916C167.486 572.824 167.538 572.741 167.606 572.673C167.674 572.605 167.757 572.553 167.849 572.523C167.94 572.493 168.038 572.485 168.133 572.5H180.033C183.766 572.5 186.676 573.427 188.762 575.28C189.816 576.253 190.643 577.446 191.184 578.774C191.724 580.103 191.965 581.535 191.889 582.967C191.928 584.865 191.48 586.742 190.589 588.418C189.739 589.977 188.437 591.241 186.853 592.043C189.661 594.046 191.441 597.408 192.193 602.127ZM184.68 582.975C184.68 580.308 183.073 578.975 179.859 578.975H174.474V587.01H179.859C183.073 587.013 184.68 585.668 184.68 582.975ZM189.466 518.928L190.35 520.281C191.48 522.166 193.177 523.645 195.199 524.507C198.023 525.39 200.976 525.786 203.933 525.676C204.356 525.676 204.775 525.759 205.165 525.921C205.556 526.083 205.911 526.32 206.21 526.619C206.509 526.918 206.746 527.273 206.908 527.664C207.07 528.054 207.153 528.473 207.153 528.896V552.035C207.153 552.889 206.814 553.708 206.21 554.312C205.606 554.916 204.787 555.255 203.933 555.255C193.639 555.255 186.123 554.055 180.955 551.599C175.746 549.125 170.86 544.379 166.435 537.493L161.473 529.699C159.792 529.826 158.399 529.89 157.317 529.89H147.511V552.035C147.511 552.889 147.172 553.708 146.568 554.312C145.965 554.915 145.146 555.255 144.292 555.255H120.3C119.446 555.255 118.627 554.916 118.023 554.312C117.419 553.708 117.08 552.889 117.08 552.035V431.551C117.08 431.128 117.163 430.709 117.325 430.319C117.487 429.928 117.724 429.573 118.023 429.274C118.322 428.975 118.677 428.738 119.068 428.576C119.458 428.414 119.877 428.331 120.3 428.331H156.46C171.441 428.331 184.085 433.345 194.038 443.231C198.85 447.856 202.663 453.418 205.243 459.574C207.822 465.729 209.114 472.348 209.038 479.022C209.068 487.284 207.055 495.425 203.18 502.722C199.851 509.063 195.169 514.596 189.466 518.928ZM178.6 479.2C178.675 476.475 178.162 473.766 177.095 471.257C176.028 468.748 174.434 466.499 172.419 464.662C170.388 462.719 167.992 461.198 165.37 460.185C162.748 459.172 159.951 458.689 157.141 458.762H147.508V499.453H157.141C162.808 499.608 168.306 497.514 172.433 493.628C174.446 491.814 176.039 489.584 177.104 487.093C178.169 484.601 178.68 481.908 178.6 479.2ZM138.189 575.31C140.256 577.177 141.291 579.804 141.295 583.192C141.379 584.655 141.144 586.119 140.608 587.483C140.072 588.846 139.247 590.078 138.189 591.092C136.122 592.974 133.205 593.915 129.438 593.914H124.01V602.214C124.01 602.681 123.764 602.912 123.271 602.909H117.671C117.577 602.923 117.48 602.914 117.39 602.884C117.299 602.854 117.217 602.803 117.15 602.735C117.082 602.668 117.031 602.586 117.001 602.495C116.971 602.405 116.962 602.308 116.976 602.214V573.2C116.962 573.105 116.97 573.008 117 572.917C117.03 572.826 117.08 572.744 117.148 572.676C117.215 572.608 117.298 572.556 117.389 572.526C117.479 572.495 117.576 572.486 117.671 572.5H129.44C133.203 572.505 136.119 573.442 138.189 575.31ZM134.043 583.192C134.043 580.384 132.45 578.98 129.265 578.979H124.01V587.405H129.265C132.449 587.405 134.042 586.001 134.043 583.192ZM696.743 158.708V538.036C696.743 625.548 625.543 696.744 538.035 696.744H158.709C71.2 696.744 0 625.548 0 538.036V158.708C0 71.2 71.2 0 158.709 0H538.036C625.548 0 696.744 71.2 696.744 158.708H696.743ZM660.904 158.708C660.867 126.133 647.91 94.9019 624.876 71.8675C601.842 48.8331 570.611 35.8761 538.036 35.839H158.709C126.133 35.8758 94.9024 48.8327 71.8678 71.8671C48.8332 94.9015 35.8761 126.132 35.839 158.708V538.036C35.8758 570.612 48.8328 601.843 71.8675 624.877C94.9021 647.912 126.133 660.869 158.709 660.905H538.036C570.612 660.868 601.842 647.911 624.877 624.877C647.911 601.842 660.868 570.612 660.905 538.036L660.904 158.708ZM240.268 596.438H226.24V590.879H237.054C237.517 590.879 237.748 590.633 237.749 590.141V585.277C237.749 584.785 237.517 584.539 237.054 584.538H226.24V578.979H240.1C240.562 578.979 240.794 578.734 240.794 578.241V573.2C240.808 573.105 240.8 573.009 240.77 572.918C240.74 572.827 240.69 572.744 240.623 572.676C240.555 572.608 240.473 572.557 240.382 572.526C240.291 572.496 240.195 572.487 240.1 572.5H219.9C219.805 572.486 219.708 572.495 219.617 572.525C219.526 572.556 219.444 572.607 219.376 572.675C219.309 572.743 219.258 572.826 219.228 572.917C219.199 573.008 219.191 573.105 219.205 573.2V602.21C219.191 602.304 219.2 602.401 219.23 602.491C219.26 602.582 219.311 602.664 219.379 602.731C219.446 602.799 219.528 602.85 219.619 602.88C219.709 602.91 219.806 602.919 219.9 602.905H240.268C240.362 602.918 240.459 602.91 240.549 602.879C240.639 602.849 240.722 602.798 240.789 602.731C240.856 602.663 240.907 602.581 240.937 602.491C240.968 602.401 240.976 602.304 240.963 602.21V597.172C240.963 596.685 240.73 596.438 240.268 596.438ZM336.507 596.438H322.479V590.879H333.293C333.755 590.879 333.988 590.633 333.988 590.141V585.277C333.988 584.785 333.755 584.538 333.293 584.538H322.479V578.979H336.333C336.795 578.979 337.028 578.734 337.028 578.241V573.2C337.042 573.105 337.034 573.008 337.004 572.917C336.974 572.826 336.924 572.744 336.856 572.676C336.789 572.608 336.706 572.556 336.615 572.526C336.525 572.495 336.428 572.486 336.333 572.5H316.133C316.038 572.486 315.941 572.495 315.851 572.526C315.76 572.556 315.677 572.608 315.61 572.676C315.542 572.744 315.492 572.826 315.462 572.917C315.432 573.008 315.424 573.105 315.438 573.2V602.21C315.424 602.304 315.433 602.401 315.463 602.491C315.493 602.582 315.544 602.664 315.612 602.731C315.679 602.799 315.761 602.85 315.852 602.88C315.942 602.91 316.039 602.919 316.133 602.905H336.502C336.596 602.918 336.693 602.91 336.783 602.879C336.873 602.849 336.956 602.798 337.023 602.731C337.09 602.663 337.141 602.581 337.171 602.491C337.202 602.401 337.21 602.304 337.197 602.21V597.172C337.2 596.685 336.969 596.438 336.507 596.438ZM577.172 428.331H511.878C511.024 428.331 510.205 428.67 509.601 429.274C508.997 429.878 508.657 430.697 508.657 431.551V552.035C508.657 552.889 508.997 553.708 509.601 554.312C510.205 554.916 511.024 555.255 511.878 555.255H577.172C578.026 555.255 578.845 554.916 579.449 554.312C580.053 553.708 580.393 552.889 580.393 552.035V528.9C580.393 528.046 580.053 527.227 579.449 526.623C578.845 526.019 578.026 525.68 577.172 525.68H539.091V506.925H574.947C575.801 506.925 576.62 506.585 577.224 505.981C577.828 505.377 578.167 504.558 578.167 503.704V481.425C578.167 480.571 577.828 479.752 577.224 479.148C576.62 478.544 575.801 478.205 574.947 478.205H539.091V457.905H577.172C578.026 457.905 578.845 457.566 579.449 456.962C580.053 456.358 580.393 455.539 580.393 454.685V431.551C580.393 430.697 580.053 429.878 579.449 429.274C578.845 428.67 578.026 428.331 577.172 428.331ZM288.472 572.508H268.41C268.315 572.494 268.218 572.503 268.128 572.534C268.037 572.564 267.954 572.616 267.887 572.684C267.82 572.752 267.769 572.834 267.739 572.925C267.71 573.017 267.702 573.113 267.716 573.208V602.218C267.702 602.312 267.711 602.409 267.741 602.499C267.771 602.59 267.821 602.672 267.889 602.739C267.956 602.807 268.038 602.858 268.129 602.888C268.219 602.918 268.316 602.927 268.41 602.913H274.01C274.501 602.913 274.748 602.682 274.748 602.218V591.878H286.604C287.071 591.878 287.302 591.632 287.299 591.139V586.059C287.313 585.965 287.304 585.868 287.274 585.778C287.244 585.687 287.193 585.605 287.125 585.538C287.058 585.47 286.976 585.419 286.885 585.389C286.795 585.359 286.698 585.35 286.604 585.364H274.751V579.023H288.475C288.57 579.037 288.667 579.028 288.757 578.997C288.848 578.967 288.931 578.915 288.998 578.847C289.066 578.779 289.116 578.697 289.146 578.606C289.176 578.515 289.184 578.418 289.17 578.323V573.2C289.183 573.106 289.174 573.01 289.143 572.92C289.113 572.83 289.062 572.748 288.995 572.681C288.927 572.614 288.845 572.564 288.755 572.534C288.665 572.504 288.569 572.495 288.475 572.508H288.472ZM371.014 525.676H357.136C346.286 525.676 337.931 522.52 331.592 516.025C325.23 509.503 322.136 501.493 322.136 491.539C322.136 481.816 325.227 473.949 331.583 467.488C337.922 461.042 346.225 457.909 356.966 457.909H370.847C371.27 457.909 371.689 457.826 372.079 457.664C372.47 457.502 372.825 457.265 373.124 456.966C373.423 456.667 373.66 456.312 373.822 455.921C373.984 455.531 374.067 455.112 374.067 454.689V431.551C374.067 431.128 373.984 430.709 373.822 430.319C373.66 429.928 373.423 429.573 373.124 429.274C372.825 428.975 372.47 428.738 372.079 428.576C371.689 428.414 371.27 428.331 370.847 428.331H356.108C337.255 428.331 321.608 434.414 309.614 446.413C297.62 458.412 291.533 473.596 291.533 491.539C291.533 509.828 297.677 525.186 309.796 537.185C321.915 549.184 337.836 555.255 357.136 555.255H371.017C371.871 555.255 372.69 554.916 373.294 554.312C373.898 553.708 374.237 552.889 374.237 552.035V528.9C374.238 528.477 374.155 528.058 373.993 527.667C373.831 527.275 373.594 526.92 373.295 526.621C372.996 526.321 372.641 526.084 372.25 525.922C371.859 525.759 371.44 525.676 371.017 525.676H371.014ZM370.248 572.508H364.648C364.553 572.494 364.456 572.503 364.365 572.533C364.274 572.564 364.192 572.615 364.124 572.683C364.057 572.751 364.006 572.834 363.976 572.925C363.947 573.016 363.939 573.113 363.953 573.208V602.218C363.939 602.312 363.948 602.409 363.978 602.499C364.008 602.59 364.059 602.672 364.127 602.739C364.194 602.807 364.276 602.858 364.367 602.888C364.457 602.918 364.554 602.927 364.648 602.913H370.248C370.74 602.913 370.986 602.681 370.986 602.218V573.2C370.988 572.739 370.743 572.508 370.251 572.508H370.248ZM420.061 572.508H397.4C396.907 572.508 396.66 572.741 396.661 573.208V578.332C396.661 578.795 396.907 579.029 397.4 579.032H405.216V602.223C405.202 602.317 405.211 602.414 405.241 602.504C405.271 602.595 405.322 602.677 405.39 602.744C405.457 602.812 405.539 602.863 405.63 602.893C405.72 602.923 405.817 602.932 405.911 602.918H411.511C411.605 602.932 411.702 602.923 411.792 602.893C411.883 602.863 411.965 602.812 412.032 602.744C412.1 602.677 412.151 602.595 412.181 602.504C412.211 602.414 412.22 602.317 412.206 602.223V579.023H420.067C420.162 579.037 420.259 579.028 420.349 578.997C420.44 578.967 420.523 578.915 420.59 578.847C420.658 578.779 420.708 578.697 420.738 578.606C420.768 578.515 420.776 578.418 420.762 578.323V573.2C420.775 573.106 420.766 573.009 420.735 572.919C420.705 572.829 420.653 572.747 420.586 572.68C420.518 572.613 420.436 572.562 420.345 572.532C420.255 572.503 420.158 572.494 420.064 572.508H420.061ZM413.303 552.035V431.551C413.303 431.128 413.22 430.709 413.058 430.319C412.896 429.928 412.659 429.573 412.36 429.274C412.061 428.975 411.706 428.738 411.315 428.576C410.925 428.414 410.506 428.331 410.083 428.331H386.092C385.238 428.331 384.419 428.67 383.815 429.274C383.211 429.878 382.871 430.697 382.871 431.551V552.035C382.871 552.889 383.211 553.708 383.815 554.312C384.419 554.916 385.238 555.255 386.092 555.255H410.086C410.94 555.255 411.759 554.916 412.363 554.312C412.967 553.708 413.306 552.889 413.306 552.035H413.303ZM286.703 428.335H221.403C220.549 428.335 219.73 428.675 219.127 429.278C218.523 429.882 218.184 430.701 218.184 431.555V552.035C218.184 552.889 218.523 553.708 219.127 554.312C219.73 554.915 220.549 555.255 221.403 555.255H286.703C287.557 555.255 288.376 554.916 288.98 554.312C289.584 553.708 289.923 552.889 289.923 552.035V528.9C289.923 528.046 289.584 527.227 288.98 526.623C288.376 526.019 287.557 525.68 286.703 525.68H248.621V506.925H284.476C284.899 506.925 285.318 506.842 285.708 506.68C286.099 506.518 286.454 506.281 286.753 505.982C287.052 505.682 287.289 505.327 287.451 504.937C287.613 504.546 287.696 504.127 287.696 503.704V481.425C287.696 481.002 287.613 480.583 287.451 480.193C287.289 479.802 287.052 479.447 286.753 479.148C286.454 478.849 286.099 478.612 285.708 478.45C285.318 478.288 284.899 478.205 284.476 478.205H248.621V457.905H286.7C287.554 457.905 288.373 457.566 288.977 456.962C289.581 456.358 289.92 455.539 289.92 454.685V431.551C289.92 430.697 289.581 429.878 288.977 429.274C288.373 428.67 287.554 428.331 286.7 428.331L286.703 428.335ZM524.163 602.135C524.25 602.657 524.032 602.917 523.512 602.917H517.212C517.022 602.933 516.834 602.873 516.688 602.752C516.542 602.63 516.45 602.455 516.431 602.266C515.822 599.081 514.873 596.837 513.586 595.534C512.858 594.855 511.999 594.331 511.062 593.995C510.125 593.659 509.13 593.518 508.136 593.58H506.441V602.222C506.441 602.689 506.195 602.92 505.703 602.917H500.103C500.009 602.931 499.912 602.922 499.822 602.892C499.731 602.862 499.649 602.811 499.582 602.743C499.514 602.676 499.463 602.594 499.433 602.503C499.403 602.413 499.394 602.316 499.408 602.222V573.2C499.394 573.105 499.402 573.008 499.431 572.917C499.461 572.826 499.512 572.743 499.579 572.675C499.647 572.607 499.729 572.556 499.82 572.525C499.911 572.495 500.008 572.486 500.103 572.5H512C515.733 572.5 518.643 573.427 520.729 575.28C521.783 576.253 522.61 577.446 523.151 578.774C523.691 580.103 523.932 581.535 523.856 582.967C523.895 584.865 523.447 586.742 522.556 588.418C521.706 589.977 520.404 591.241 518.82 592.043C521.63 594.046 523.411 597.408 524.163 602.127V602.135ZM516.65 582.983C516.65 580.316 515.043 578.983 511.829 578.983H506.443V587.018H511.829C515.043 587.015 516.65 585.668 516.65 582.975V582.983ZM347.993 158.4C365.635 158.382 383.098 161.939 399.327 168.856L393.992 181.523C379.432 175.356 363.78 172.18 347.968 172.184C332.156 172.188 316.506 175.371 301.949 181.544L296.61 168.88C312.853 161.948 330.333 158.383 347.993 158.4ZM268.213 109.83L271.15 108.494C278.545 105.36 286.126 102.685 293.85 100.485L291.826 93.561C289.93 94.1063 288.044 94.6773 286.169 95.274L287.08 98.047C285.424 98.574 283.791 99.152 282.154 99.72L281.233 96.92C279.24 97.606 277.261 98.322 275.296 99.068L276.375 101.819L271.54 103.733L270.464 100.989L268.345 101.851C267.318 102.29 266.32 102.781 265.302 103.235L265.002 103.371L267.922 109.964L268.213 109.83ZM317.986 125.751L314.176 103.641C308.012 104.763 301.957 106.179 296.012 107.888L302.312 129.418C307.437 127.951 312.662 126.728 317.986 125.751ZM347.993 122.985C350.67 122.985 353.328 123.063 355.974 123.185L357.251 100.776C354.182 100.627 351.098 100.539 347.993 100.539C344.858 100.542 341.724 100.622 338.593 100.78L339.87 123.189C342.562 123.063 345.269 122.985 347.993 122.985ZM384.229 88.908C382.478 88.592 380.715 88.308 378.95 88.035L378.531 90.951C376.824 90.69 375.092 90.511 373.372 90.293L373.801 87.308C371.975 87.07 370.142 86.8573 368.301 86.67L368.032 89.635C366.315 89.464 364.577 89.367 362.847 89.235L363.122 86.198L358.122 85.864L357.706 93.071C366.192 93.5038 374.641 94.4882 383 96.018L384.229 88.908ZM338.161 93.078L337.752 85.871C336.039 85.956 334.337 86.085 332.637 86.216L332.894 89.246L327.709 89.646L327.458 86.696C325.617 86.8873 323.783 87.1027 321.958 87.342L322.368 90.309L317.211 90.97L316.811 88.075L311.635 88.935L312.862 96.045C321.222 94.5082 329.673 93.5164 338.161 93.078ZM427.661 109.778L427.913 109.893L430.828 103.293L430.565 103.174L427.565 101.808C426.819 101.49 426.059 101.199 425.308 100.891L424.197 103.685C422.597 103.026 420.985 102.388 419.361 101.771L420.473 98.971C418.549 98.243 416.612 97.543 414.661 96.871L413.707 99.719L408.783 98.046L409.725 95.232C407.838 94.632 405.94 94.0587 404.033 93.512L402.008 100.436C409.752 102.635 417.352 105.312 424.765 108.45C425.741 108.879 426.691 109.348 427.662 109.78L427.661 109.778ZM405.91 153.223C387.584 145.435 367.875 141.423 347.962 141.427C328.049 141.431 308.342 145.452 290.019 153.248L295.738 166.813C312.253 159.785 330.016 156.16 347.965 156.156C365.913 156.152 383.678 159.769 400.196 166.79L405.91 153.223ZM412.689 143.795L412.889 143.887L414.828 139.501L414.619 139.406L412.191 138.306C391.876 129.673 370.029 125.225 347.956 125.23C325.883 125.235 304.038 129.692 283.727 138.334C282.896 138.689 282.088 139.086 281.264 139.454L281.031 139.56L282.973 143.945L283.197 143.845L285.591 142.757C305.313 134.365 326.524 130.038 347.957 130.033C369.39 130.028 390.604 134.347 410.329 142.73C411.128 143.065 411.9 143.446 412.69 143.8L412.689 143.795ZM406.779 151.158L409.462 144.789C390.012 136.522 369.094 132.264 347.959 132.269C326.825 132.273 305.909 136.54 286.462 144.815L289.146 151.183C289.162 151.176 289.179 151.171 289.194 151.164C289.114 149.959 289.424 148.76 290.077 147.743C290.73 146.727 291.691 145.947 292.821 145.519C293.95 145.09 295.187 145.035 296.35 145.362C297.513 145.689 298.54 146.381 299.28 147.335C301.792 146.472 304.332 145.675 306.9 144.943C306.956 143.732 307.402 142.57 308.17 141.632C308.938 140.694 309.989 140.028 311.165 139.734C312.342 139.44 313.582 139.533 314.701 139.999C315.821 140.466 316.76 141.281 317.38 142.323C319.786 141.822 322.213 141.382 324.662 141.001C324.842 139.771 325.423 138.634 326.315 137.768C327.208 136.902 328.361 136.354 329.596 136.211C330.832 136.068 332.08 136.337 333.146 136.976C334.213 137.616 335.039 138.589 335.495 139.746C337.807 139.554 340.132 139.414 342.47 139.325C342.773 138.1 343.478 137.011 344.472 136.233C345.466 135.455 346.692 135.032 347.954 135.032C349.217 135.032 350.443 135.455 351.437 136.233C352.431 137.011 353.136 138.1 353.439 139.325C355.78 139.409 358.106 139.548 360.417 139.742C360.874 138.588 361.699 137.616 362.765 136.979C363.83 136.341 365.076 136.072 366.31 136.214C367.543 136.356 368.695 136.901 369.587 137.765C370.48 138.628 371.062 139.762 371.245 140.99C373.696 141.372 376.128 141.812 378.539 142.31C379.16 141.272 380.098 140.461 381.216 139.998C382.333 139.534 383.569 139.442 384.743 139.735C385.916 140.028 386.964 140.691 387.733 141.625C388.501 142.559 388.948 143.716 389.008 144.924C391.583 145.657 394.129 146.455 396.645 147.317C397.387 146.37 398.412 145.685 399.571 145.361C400.73 145.038 401.961 145.094 403.086 145.52C404.211 145.947 405.17 146.722 405.823 147.732C406.477 148.742 406.79 149.935 406.717 151.136L406.779 151.158ZM291.618 103.458C285.464 105.328 279.408 107.505 273.472 109.982C272.992 110.182 272.498 110.355 272.02 110.559L273.274 113.534C273.752 113.334 274.245 113.157 274.725 112.957C280.521 110.54 286.454 108.406 292.525 106.557L291.618 103.458ZM284.3 135.7C289.238 133.647 294.289 131.828 299.454 130.243L293.154 108.714C287.171 110.536 281.318 112.641 275.595 115.029C275.116 115.229 274.623 115.402 274.146 115.605L282.86 136.272C283.333 136.065 283.821 135.893 284.3 135.7ZM336.91 123.4L335.634 101C329.367 101.408 323.19 102.115 317.102 103.122L320.913 125.231C326.165 124.362 331.496 123.752 336.907 123.4H336.91ZM316.17 97.723L316.718 100.905C322.886 99.883 329.148 99.166 335.503 98.754L335.319 95.529C328.846 95.949 322.463 96.6803 316.17 97.723ZM423.892 110.523C423.398 110.313 422.892 110.134 422.392 109.923C416.48 107.461 410.428 105.29 404.236 103.41L403.33 106.51C409.397 108.352 415.333 110.482 421.139 112.899L422.639 113.499L423.892 110.523ZM420.27 114.969C414.549 112.587 408.692 110.487 402.701 108.669L396.401 130.199C401.566 131.773 406.621 133.588 411.565 135.645L413.065 136.239L421.765 115.568C421.276 115.358 420.766 115.179 420.27 114.973V114.969ZM358.938 123.381C364.344 123.735 369.677 124.34 374.938 125.195L378.749 103.086C372.662 102.086 366.484 101.383 360.213 100.978L358.938 123.381ZM379.679 97.7C373.39 96.6633 367.006 95.937 360.525 95.521L360.341 98.745C366.693 99.153 372.956 99.8657 379.131 100.883L379.679 97.7ZM377.863 125.728C383.183 126.697 388.411 127.915 393.547 129.382L399.847 107.853C393.903 106.15 387.847 104.738 381.678 103.619L377.863 125.728ZM347.894 229.928C335.002 229.943 322.319 233.191 311.006 239.374C299.693 245.557 290.111 254.479 283.137 265.322H286.364C293.165 255.258 302.331 247.015 313.058 241.318C323.786 235.62 335.747 232.64 347.893 232.64C360.04 232.64 372.001 235.62 382.729 241.318C393.456 247.015 402.622 255.258 409.423 265.322H412.65C405.677 254.477 396.096 245.555 384.783 239.37C373.47 233.186 360.787 229.937 347.894 229.921V229.928ZM473.273 159.028C474.267 159.458 481.694 155.865 487.244 158.114C490.712 159.519 492.109 161.736 493.444 164.637C493.544 159.843 491.099 157.909 488.544 156.523C485.033 154.623 475.107 156.749 474.775 156.637C474.443 156.525 470.783 145.552 462.421 153.167C472.279 148.435 472.279 158.593 473.273 159.023V159.028ZM350.522 270.207H346.428V277.034H339.509V281.11H346.428V299.691H350.522V281.11H357.441V277.034H350.522V270.207ZM347.894 223.3C333.185 223.322 318.742 227.216 306.016 234.591C293.29 241.967 282.731 252.563 275.4 265.315H278.512C285.696 253.329 295.863 243.408 308.022 236.521C320.18 229.633 333.916 226.012 347.891 226.012C361.865 226.012 375.601 229.633 387.759 236.521C399.918 243.408 410.085 253.329 417.269 265.315H420.381C413.051 252.564 402.493 241.968 389.768 234.593C377.044 227.217 362.602 223.323 347.894 223.3ZM270.963 203.332H424.823V265.22C417.318 251.359 406.208 239.783 392.666 231.716C379.125 223.649 363.655 219.39 347.893 219.39C332.131 219.39 316.661 223.649 303.12 231.716C289.578 239.783 278.468 251.359 270.963 265.22V203.332ZM342.189 209.988L342.782 210.423L344.012 211.323L345.709 212.569L345.231 214.041V214.049L344.36 216.732L347.669 214.323H347.675L347.891 214.166L348.908 214.911L350.13 215.811L351.403 216.743L351.341 216.552L350.13 212.799V212.791L350.063 212.581L350.13 212.531L353.566 209.994H349.2L347.902 205.871L347.686 206.524L347.68 206.541L346.534 209.995H342.191L342.189 209.988ZM404.643 265.315H291.143C297.677 256.398 306.22 249.145 316.079 244.146C325.939 239.147 336.838 236.542 347.893 236.542C358.948 236.542 369.847 239.147 379.707 244.146C389.566 249.145 398.109 256.398 404.643 265.315ZM354.143 251.422L354.53 251.297L356.464 250.672L355.491 250.15L354.53 249.636L353.93 249.317L354.53 248.717L355.491 247.749L356.291 246.949H353.176L353.57 245.991L354.312 244.191L353.57 244.396L351.411 244.991L351.19 242.03L349.737 243.274L348.878 244.011L348.745 243.741V243.734L347.716 241.657L346.798 243.351L346.537 243.831L344.004 241.657L344.199 245.168L343.923 245.058L341.29 244.011L342.657 246.744H339.131L341.04 249.182L341.287 249.498L341.04 249.624L338.953 250.681L339.096 250.746L341.479 251.838L338.953 254.378H342.489L341.099 257.284L341.978 256.993L344.005 256.323L344.2 259.86L344.881 259.225L346.724 257.506L347.928 259.64L348.742 257.318V257.309L348.875 256.927L350.659 258.838L351.408 259.638L351.584 255.945L351.642 255.969L352.593 256.369L353.931 256.927L353.567 255.967L352.967 254.379H356.06L354.533 252.029L354.143 251.422ZM418.383 378.437C416.548 376.909 414.235 376.073 411.848 376.073C409.46 376.073 407.147 376.909 405.312 378.437C403.875 379.347 402.74 380.065 401.331 380.065C399.922 380.065 398.785 379.347 397.349 378.437C395.514 376.909 393.201 376.073 390.814 376.073C388.426 376.073 386.113 376.909 384.278 378.437C382.842 379.347 381.707 380.065 380.297 380.065C378.887 380.065 377.754 379.348 376.315 378.437C374.479 376.909 372.166 376.072 369.778 376.072C367.39 376.072 365.077 376.909 363.241 378.437C361.805 379.346 360.671 380.063 359.263 380.063C357.855 380.063 356.72 379.346 355.282 378.435C353.446 376.907 351.133 376.07 348.745 376.07C346.356 376.07 344.043 376.907 342.207 378.435C340.771 379.344 339.637 380.061 338.229 380.061C336.821 380.061 335.683 379.343 334.247 378.433C332.411 376.905 330.098 376.068 327.71 376.068C325.322 376.068 323.009 376.905 321.173 378.433C319.737 379.342 318.603 380.059 317.195 380.059C315.787 380.059 314.649 379.341 313.213 378.431C311.377 376.903 309.064 376.066 306.676 376.066C304.288 376.066 301.975 376.903 300.139 378.431C298.704 379.34 297.569 380.057 296.161 380.057C294.753 380.057 293.615 379.339 292.179 378.429C290.343 376.901 288.03 376.064 285.642 376.064C283.254 376.064 280.941 376.901 279.105 378.429C277.67 379.338 276.535 380.055 275.127 380.055C273.719 380.055 272.581 379.337 271.145 378.427L270.977 378.322V383.079C272.255 383.759 273.679 384.121 275.127 384.135C277.39 384.018 279.566 383.223 281.372 381.854C282.823 380.935 284.072 380.142 285.644 380.142C287.216 380.142 288.464 380.935 289.921 381.856C291.668 383.328 293.879 384.136 296.164 384.136C298.448 384.136 300.659 383.328 302.406 381.856C303.857 380.937 305.106 380.144 306.678 380.144C308.25 380.144 309.5 380.938 310.955 381.858C312.702 383.331 314.913 384.138 317.197 384.138C319.481 384.138 321.692 383.331 323.439 381.858C324.891 380.939 326.139 380.146 327.712 380.146C329.285 380.146 330.534 380.94 331.988 381.86C333.735 383.332 335.946 384.14 338.231 384.14C340.516 384.14 342.727 383.332 344.474 381.86C345.925 380.941 347.174 380.148 348.746 380.148C350.318 380.148 351.568 380.942 353.022 381.862C354.769 383.334 356.98 384.142 359.264 384.142C361.549 384.142 363.76 383.334 365.507 381.862C366.959 380.943 368.207 380.15 369.78 380.15C371.353 380.15 372.602 380.944 374.056 381.864C375.803 383.336 378.014 384.144 380.298 384.144C382.583 384.144 384.794 383.336 386.541 381.864C387.993 380.945 389.241 380.152 390.814 380.152C392.387 380.152 393.636 380.946 395.09 381.866C396.837 383.338 399.048 384.146 401.332 384.146C403.617 384.146 405.828 383.338 407.575 381.866C409.027 380.947 410.275 380.154 411.848 380.154C413.421 380.154 414.67 380.948 416.124 381.868C417.929 383.237 420.103 384.031 422.365 384.147C423.219 384.146 424.067 384.014 424.881 383.756V379.323C424.12 379.783 423.254 380.04 422.365 380.067C420.95 380.065 419.815 379.347 418.378 378.437H418.383ZM418.383 386.42C416.548 384.893 414.236 384.057 411.849 384.057C409.462 384.057 407.15 384.893 405.315 386.42C403.88 387.33 402.745 388.048 401.334 388.048C399.923 388.048 398.788 387.33 397.349 386.419C395.514 384.891 393.202 384.055 390.815 384.055C388.428 384.055 386.116 384.891 384.281 386.419C382.844 387.328 381.71 388.046 380.3 388.046C378.89 388.046 377.754 387.328 376.315 386.417C374.48 384.89 372.168 384.054 369.781 384.054C367.394 384.054 365.082 384.89 363.247 386.417C361.811 387.327 360.676 388.045 359.266 388.045C357.856 388.045 356.72 387.327 355.281 386.416C353.446 384.889 351.134 384.053 348.747 384.053C346.36 384.053 344.048 384.889 342.213 386.416C340.777 387.326 339.643 388.044 338.232 388.044C336.821 388.044 335.686 387.326 334.249 386.416C332.414 384.888 330.102 384.052 327.714 384.052C325.326 384.052 323.014 384.888 321.179 386.416C319.743 387.326 318.609 388.044 317.198 388.044C315.787 388.044 314.652 387.326 313.21 386.413C311.375 384.886 309.064 384.051 306.677 384.051C304.291 384.051 301.98 384.886 300.145 386.413C298.709 387.323 297.575 388.041 296.164 388.041C294.753 388.041 293.618 387.323 292.178 386.412C290.343 384.885 288.032 384.048 285.645 384.048C283.257 384.048 280.946 384.885 279.111 386.412C277.675 387.322 276.541 388.04 275.13 388.04C273.719 388.04 272.584 387.322 271.144 386.411L271.087 386.375C271.186 387.501 271.38 388.617 271.667 389.711L271.675 389.738C271.853 390.386 272.075 391.02 272.339 391.638C273.236 391.953 274.179 392.114 275.13 392.116C277.394 391.999 279.571 391.204 281.377 389.833C282.828 388.916 284.077 388.124 285.647 388.124C287.217 388.124 288.466 388.916 289.92 389.835C291.667 391.309 293.88 392.117 296.165 392.117C298.451 392.117 300.664 391.309 302.411 389.835C303.862 388.918 305.111 388.126 306.681 388.126C308.251 388.126 309.502 388.919 310.954 389.837C312.701 391.311 314.914 392.119 317.199 392.119C319.485 392.119 321.698 391.311 323.445 389.837C324.896 388.92 326.145 388.128 327.715 388.128C329.285 388.128 330.536 388.921 331.988 389.839C333.735 391.313 335.948 392.121 338.233 392.121C340.519 392.121 342.732 391.313 344.479 389.839C345.93 388.922 347.179 388.13 348.749 388.13C350.319 388.13 351.569 388.922 353.022 389.841C354.769 391.315 356.982 392.123 359.267 392.123C361.553 392.123 363.766 391.315 365.513 389.841C366.964 388.924 368.213 388.132 369.783 388.132C371.353 388.132 372.603 388.924 374.056 389.843C375.803 391.317 378.016 392.125 380.302 392.125C382.587 392.125 384.8 391.317 386.547 389.843C387.998 388.926 389.247 388.134 390.817 388.134C392.387 388.134 393.637 388.926 395.09 389.845C396.837 391.319 399.05 392.127 401.336 392.127C403.621 392.127 405.834 391.319 407.581 389.845C409.031 388.928 410.281 388.136 411.851 388.136C413.421 388.136 414.671 388.928 416.124 389.847C417.929 391.217 420.105 392.012 422.368 392.128C422.69 392.128 423.013 392.109 423.333 392.072C423.683 391.322 423.969 390.544 424.189 389.746L424.196 389.719C424.397 388.962 424.551 388.194 424.659 387.419C423.958 387.812 423.171 388.027 422.368 388.046C420.95 388.049 419.815 387.331 418.375 386.42H418.383ZM202.438 194.568C208.368 197.319 211.821 198.257 216.538 203.092C220.858 207.517 226.995 208.727 231.594 204.379L237.559 198.772C240.193 199.542 243.009 199.408 245.559 198.393C247.407 201.88 247.934 212.993 228.859 209.466C236.129 215.999 253.41 214.103 249.427 194.59C251.092 192.765 250.833 188.833 250.46 184.49C249.808 177.302 251.633 175.914 251.599 172.056C251.516 168.133 250.682 165.599 246.621 161.445C242.56 157.291 239.654 155.945 237.951 155.815C237.444 155.915 236.961 156.111 236.527 156.391C236.527 156.391 243.36 159.666 245.542 163.82C247.79 167.96 246.558 173.92 245.823 177.588C245.219 180.715 245.679 183.954 247.131 186.788C248.317 189.16 249.506 192.108 247.059 194.752C244.612 197.396 238.453 195.743 238.453 195.743C237.943 194.927 237.625 194.007 237.522 193.051C237.42 192.094 237.536 191.127 237.861 190.222C239.002 187.254 240.905 185.837 240.805 184.134C240.698 182.455 238.75 181.317 236.734 179.276C234.703 177.235 232.848 172.976 233.834 170.982C234.255 169.94 234.899 169.002 235.722 168.236C236.544 167.47 237.525 166.894 238.595 166.549C240.97 165.759 241.642 164.521 240.587 162.781C239.55 160.981 236.802 161.171 234.93 162.925C233.13 164.694 230.259 168.614 231.221 173.281C232.227 177.966 235.141 181.317 236.802 183.358C238.512 185.358 236.275 188.053 232.476 188.908C228.656 189.818 226.294 189.501 225.846 188.981C225.426 188.46 225.484 185.189 224.884 181.49C224.243 177.79 218.59 173.957 214.001 174.078C209.401 174.143 206.596 175.191 207.596 178.49C210.212 182.727 215.446 177.715 215.446 177.715C215.446 177.715 219.92 180.015 221.499 183.603C223.006 187.254 222.499 190.953 224.733 191.583C226.912 192.183 231.983 190.563 233.306 192.259C234.229 193.528 234.856 194.987 235.141 196.53C235.141 196.53 228.019 207.037 220.827 202.967C217.874 201.296 213.949 197.413 209.478 194.562C205.031 191.749 199.963 190.862 199.963 183.262C199.963 175.627 200.394 173.61 201.449 168.842C202.521 164.088 202.521 158.872 208.775 158.069C215.063 157.293 221.384 158.369 222.436 157.917C223.488 157.465 223.488 146.717 233.917 151.717C225.069 143.66 221.198 155.271 220.846 155.389C220.494 155.507 208.921 153.389 205.207 155.409C201.493 157.429 200.465 159.558 197.857 171.925C195.4 183.631 196.533 191.831 202.438 194.568ZM247.854 226.026C249.623 230.22 251.164 234.506 252.472 238.865C245.392 229.888 238.484 228.038 235.323 224.323C234.919 227.853 235.052 231.423 235.718 234.913C230.527 231.618 226.489 226.791 224.164 221.1C223.864 227.683 226.906 238.431 243.217 242.35C239.117 236.85 238.967 232.36 238.967 232.36C238.967 232.36 247.567 237.641 257.055 249.653C257.61 238.271 255.672 231.792 247.854 226.026ZM418.375 370.451C416.54 368.923 414.228 368.087 411.841 368.087C409.454 368.087 407.142 368.923 405.307 370.451C403.871 371.361 402.736 372.079 401.326 372.079C399.916 372.079 398.781 371.361 397.341 370.449C395.506 368.921 393.194 368.083 390.806 368.083C388.417 368.083 386.105 368.921 384.27 370.449C382.834 371.357 381.7 372.074 380.292 372.074C378.884 372.074 377.747 371.356 376.307 370.444C374.472 368.916 372.16 368.08 369.773 368.08C367.386 368.08 365.074 368.916 363.239 370.444C361.802 371.354 360.667 372.072 359.258 372.072C357.849 372.072 356.713 371.354 355.273 370.442C353.438 368.914 351.126 368.078 348.739 368.078C346.352 368.078 344.04 368.914 342.205 370.442C340.768 371.352 339.633 372.07 338.224 372.07C336.815 372.07 335.679 371.352 334.241 370.441C332.406 368.913 330.094 368.077 327.706 368.077C325.318 368.077 323.006 368.913 321.171 370.441C319.734 371.351 318.599 372.069 317.19 372.069C315.781 372.069 314.645 371.351 313.202 370.437C311.368 368.91 309.056 368.074 306.669 368.074C304.283 368.074 301.971 368.91 300.137 370.437C298.7 371.347 297.565 372.065 296.156 372.065C294.747 372.065 293.612 371.347 292.17 370.435C290.336 368.907 288.024 368.071 285.637 368.071C283.249 368.071 280.937 368.907 279.103 370.435C277.666 371.345 276.531 372.063 275.122 372.063C273.713 372.063 272.578 371.345 271.136 370.433L270.972 370.333V375.09C272.25 375.77 273.674 376.132 275.122 376.145C277.386 376.029 279.563 375.233 281.369 373.862C282.82 372.945 284.069 372.154 285.639 372.154C287.209 372.154 288.458 372.945 289.912 373.865C291.66 375.338 293.872 376.147 296.158 376.147C298.443 376.147 300.655 375.338 302.403 373.865C303.854 372.948 305.103 372.157 306.673 372.157C308.243 372.157 309.494 372.949 310.946 373.868C312.694 375.341 314.906 376.15 317.191 376.15C319.477 376.15 321.689 375.341 323.437 373.868C324.888 372.951 326.137 372.16 327.707 372.16C329.277 372.16 330.528 372.952 331.98 373.871C333.728 375.344 335.94 376.153 338.225 376.153C340.511 376.153 342.723 375.344 344.471 373.871C345.922 372.954 347.171 372.163 348.741 372.163C350.311 372.163 351.561 372.954 353.014 373.874C354.762 375.347 356.974 376.156 359.259 376.156C361.545 376.156 363.757 375.347 365.505 373.874C366.956 372.957 368.205 372.166 369.775 372.166C371.345 372.166 372.595 372.957 374.048 373.877C375.796 375.35 378.008 376.159 380.293 376.159C382.579 376.159 384.791 375.35 386.539 373.877C387.99 372.96 389.239 372.169 390.809 372.169C392.379 372.169 393.629 372.96 395.082 373.88C396.83 375.353 399.042 376.162 401.328 376.162C403.613 376.162 405.825 375.353 407.573 373.88C409.023 372.963 410.273 372.172 411.843 372.172C413.413 372.172 414.663 372.963 416.116 373.883C417.921 375.253 420.097 376.047 422.36 376.163C423.214 376.161 424.062 376.03 424.876 375.773V371.34C424.115 371.8 423.249 372.057 422.36 372.084C420.951 372.081 419.816 371.363 418.375 370.451ZM411.843 392.042C409.478 392.162 407.202 392.985 405.307 394.406C403.87 395.316 402.735 396.034 401.326 396.034C399.917 396.034 398.78 395.316 397.344 394.406C395.509 392.878 393.196 392.042 390.809 392.042C388.421 392.042 386.108 392.878 384.273 394.406C382.837 395.316 381.702 396.034 380.292 396.034C378.882 396.034 377.749 395.317 376.31 394.406C374.474 392.878 372.161 392.041 369.773 392.041C367.385 392.041 365.072 392.878 363.236 394.406C361.8 395.315 360.666 396.032 359.258 396.032C357.85 396.032 356.715 395.315 355.277 394.404C353.441 392.876 351.128 392.039 348.74 392.039C346.351 392.039 344.038 392.876 342.202 394.404C340.766 395.313 339.632 396.03 338.224 396.03C336.816 396.03 335.678 395.312 334.242 394.402C332.406 392.874 330.093 392.037 327.705 392.037C325.317 392.037 323.004 392.874 321.168 394.402C319.732 395.311 318.598 396.028 317.19 396.028C315.782 396.028 314.644 395.31 313.208 394.4C311.372 392.872 309.059 392.035 306.671 392.035C304.283 392.035 301.97 392.872 300.134 394.4C298.699 395.309 297.564 396.026 296.156 396.026C294.748 396.026 293.61 395.308 292.174 394.398C290.338 392.87 288.025 392.033 285.637 392.033C283.249 392.033 280.936 392.87 279.1 394.398C278 395.261 276.692 395.818 275.307 396.012C276.607 397.215 278.13 398.152 279.789 398.771C280.342 398.464 280.866 398.139 281.367 397.822C282.818 396.904 284.067 396.111 285.639 396.111C287.211 396.111 288.459 396.904 289.916 397.825C291.584 399.059 293.547 399.834 295.608 400.073H296.708C298.772 399.834 300.737 399.058 302.408 397.822C303.859 396.904 305.108 396.111 306.68 396.111C308.252 396.111 309.502 396.904 310.957 397.825C312.625 399.059 314.588 399.834 316.649 400.073H317.749C319.813 399.834 321.779 399.058 323.449 397.822C324.901 396.904 326.149 396.111 327.722 396.111C329.295 396.111 330.544 396.904 331.998 397.825C333.667 399.059 335.63 399.834 337.691 400.073H338.791C340.855 399.834 342.82 399.058 344.491 397.822C345.942 396.904 347.191 396.111 348.763 396.111C350.335 396.111 351.585 396.904 353.039 397.825C354.708 399.059 356.671 399.834 358.732 400.073H359.832C361.896 399.834 363.862 399.058 365.532 397.822C366.984 396.904 368.232 396.111 369.805 396.111C371.378 396.111 372.627 396.904 374.081 397.825C375.75 399.059 377.713 399.834 379.774 400.073H380.874C382.938 399.834 384.904 399.058 386.574 397.822C388.026 396.904 389.274 396.111 390.847 396.111C392.42 396.111 393.669 396.904 395.123 397.825C396.792 399.059 398.755 399.834 400.816 400.073H401.916C403.98 399.834 405.946 399.058 407.616 397.822C409.068 396.904 410.316 396.111 411.889 396.111C413.462 396.111 414.711 396.904 416.165 397.825L417.042 398.368C418.461 397.723 419.753 396.829 420.858 395.729C420.003 395.369 419.188 394.922 418.424 394.396C416.516 392.97 414.223 392.149 411.843 392.042ZM538.3 210.993C538.3 221.448 548.372 230.887 559.037 240.882C571.328 252.403 584.037 264.315 584.037 279.8C584.037 287.051 580.753 293.367 574.537 298.067C571.947 300.012 569.085 301.567 566.044 302.682C565.99 306.637 565.686 310.585 565.133 314.502C564.548 319.234 564.043 323.32 564.987 326.578C566.014 330.122 570.987 334.656 574.976 338.298C576.903 339.92 578.682 341.709 580.293 343.645C582.434 346.663 581.371 353.157 580.245 360.032C579.801 362.75 579.38 365.318 579.235 367.358C579.089 369.43 579.087 371.886 579.084 374.487C579.078 380.54 579.073 386.8 577.284 390.371C574.884 395.181 567.146 401.352 560.948 403.531C560.3 403.802 559.642 404.049 558.975 404.269L558.242 404.513C558.067 404.59 557.9 404.684 557.722 404.756C557.478 404.856 557.229 404.937 556.98 405.027C556.51 405.197 556.041 405.367 555.562 405.503C554.933 405.683 554.3 405.837 553.67 405.961C553.579 405.978 553.485 405.988 553.394 406.005C551.502 406.445 549.551 406.575 547.618 406.39C547.082 406.362 546.548 406.32 546.018 406.258C545.511 406.2 545.005 406.125 544.503 406.033L544.403 406.017C543.66 405.875 542.93 405.697 542.211 405.491V405.432C541.927 405.409 541.65 405.305 541.369 405.214L540.88 405.087C534.732 403.396 532.572 401.362 531.813 399.192C530.407 395.705 531.757 390.828 533.96 388.497C537.304 384.946 555.754 383.197 558.885 375.786C562.063 368.35 558.885 356.667 558.885 356.667C558.885 356.667 555.754 354.898 541.196 347.497C531.678 342.636 525.535 334.881 521.936 325.835C517.619 327.551 513.524 329.778 509.736 332.468C503.206 337.223 500.193 344.145 500.042 349.419C499.842 354.753 501.61 358.258 499.842 364.457C498.115 370.666 490.999 372.579 486.242 377.874C482.232 382.323 475.342 390.703 474.609 391.667C473.596 393.031 472.419 394.264 471.103 395.339C469.88 396.339 450.792 399.369 441.309 397.868C437.36 397.242 440.303 391.279 443.32 386.388C449.792 375.898 466.269 371.343 474.788 360.929C483.22 350.479 475.112 339.899 475.112 327.185C475.112 314.43 486.266 305.877 486.266 305.877C477.674 298.745 467.405 297.648 456.451 288.434C441.758 300.12 443.816 316.563 441.678 325.034C441.019 327.493 439.796 329.765 438.105 331.669C436.414 333.573 434.302 335.056 431.938 336C431.822 336.05 431.701 336.088 431.583 336.135L431.6 352.5H431.637V382.892C431.64 385.008 431.479 387.121 431.155 389.212C430.308 394.686 428.35 398.46 425.794 401.044C425.187 401.667 424.529 402.238 423.829 402.754C419.2 406.108 413.343 406.623 408.638 406.623H287.161C282.561 406.623 276.87 406.139 272.301 402.984C271.254 402.252 270.299 401.395 269.457 400.434C267.157 397.847 265.424 394.175 264.657 389.023C264.352 386.994 264.199 384.944 264.2 382.892V336.272C264.1 336.231 264 336.199 263.895 336.156C261.531 335.212 259.42 333.73 257.729 331.827C256.038 329.924 254.815 327.653 254.155 325.195C252.018 316.721 253.255 311.574 249.736 305.41C247.659 301.325 244.459 297.918 240.512 295.59C238.39 297.522 234.212 300.423 226.421 303.115C213.121 307.731 211.166 307.9 211.166 307.9C214.122 310.21 216.518 313.159 218.172 316.526C219.827 319.893 220.699 323.591 220.722 327.343C220.722 340.057 212.614 350.637 221.046 361.087C229.565 371.501 246.046 376.056 252.513 386.546C255.531 391.437 258.474 397.4 254.524 398.026C245.041 399.526 225.954 396.497 224.731 395.497C223.415 394.422 222.238 393.189 221.225 391.825C220.491 390.861 213.602 382.481 209.592 378.032C204.831 372.737 197.715 370.824 195.992 364.615C194.223 358.415 195.992 354.915 195.792 349.577C195.64 344.303 192.627 337.377 186.098 332.627C182.311 329.937 178.215 327.71 173.898 325.993C170.298 335.039 164.156 342.793 154.638 347.655L136.949 356.825C136.949 356.825 133.771 368.508 136.949 375.944C140.079 383.353 158.53 385.104 161.874 388.655C164.074 390.986 165.427 395.862 164.021 399.355C163.261 401.524 161.101 403.555 154.954 405.249L154.465 405.376C154.184 405.467 153.907 405.571 153.623 405.653C152.904 405.859 152.174 406.037 151.431 406.179L151.331 406.195C150.829 406.287 150.323 406.362 149.816 406.42C149.286 406.482 148.752 406.52 148.216 406.552C146.283 406.737 144.332 406.607 142.44 406.167C142.348 406.15 142.255 406.141 142.164 406.123C141.534 405.999 140.901 405.845 140.272 405.665V405.565C140.272 405.623 140.266 405.665 140.266 405.665C139.788 405.529 139.318 405.359 138.849 405.189C138.6 405.099 138.349 405.018 138.107 404.918C137.929 404.846 137.762 404.752 137.586 404.675L136.854 404.431C136.168 404.206 135.515 403.956 134.881 403.693C128.681 401.515 120.95 395.344 118.545 390.533C116.759 386.961 116.753 380.7 116.745 374.646C116.745 372.046 116.745 369.59 116.594 367.521C116.449 365.48 116.029 362.912 115.583 360.193C114.457 353.318 113.394 346.825 115.537 343.807C117.147 341.871 118.925 340.081 120.852 338.46C124.845 334.818 129.814 330.284 130.842 326.74C131.786 323.482 131.281 319.395 130.696 314.663C130.143 310.747 129.839 306.799 129.785 302.844C126.744 301.729 123.882 300.174 121.292 298.229C115.079 293.529 111.792 287.213 111.792 279.963C111.792 264.477 124.502 252.563 136.792 241.044C147.455 231.05 157.528 221.61 157.528 211.155C157.528 205.366 155.833 201.538 152.628 200.086C151.686 199.674 150.669 199.46 149.641 199.458C147.918 199.693 146.32 200.488 145.094 201.722C142.907 203.834 140.56 210.84 139.401 216.214C138.357 221.053 133.026 235.444 110.951 224.96C134.217 227.823 123.192 197.537 147.887 196.731C149.892 196.428 151.941 196.69 153.805 197.488C156.805 198.847 160.382 202.322 160.382 211.155C160.382 222.845 149.872 232.696 138.744 243.125C126.895 254.225 114.644 265.713 114.644 279.963C114.644 286.347 117.434 291.709 122.937 295.902C125.066 297.503 127.394 298.82 129.863 299.819C129.923 298.751 130.003 297.667 130.136 296.548C130.251 295.623 130.42 294.705 130.642 293.8C124.136 292.043 120.542 287.355 120.485 280.4C120.368 266.652 130.905 256.7 141.096 247.079C151.736 237.032 162.738 226.643 162.738 211.644C162.738 202.184 159.306 196.193 152.813 194.32C146.113 192.389 137.296 195.409 133.021 199.577C132.958 199.638 132.898 199.705 132.836 199.768C132.636 199.971 132.443 200.181 132.258 200.398L132.048 200.649C131.831 200.917 131.628 201.197 131.441 201.487C126.154 208.963 125.001 223.45 114.008 220.906C124.618 214.78 117.764 210.573 130.685 197.89C130.833 197.735 130.994 197.585 131.152 197.434L131.421 197.172C136.501 192.516 145.878 189.35 153.603 191.58C164.032 194.589 165.59 205.442 165.59 211.644C165.59 227.872 154.134 238.69 143.054 249.152C132.854 258.779 123.23 267.871 123.336 280.375C123.385 286.092 126.128 289.682 131.478 291.075C134.622 282.803 142.325 277.807 151.678 271.768L158.57 267.242C166.535 261.702 172.821 254.077 176.74 245.202C173.6 231.315 174.901 218.744 180.075 208.625C184.817 199.353 180.42 186.976 184.522 177.325C182.449 177.531 178.096 177.154 177.487 170.525C176.694 161.803 186.323 160.984 189.874 160.039C191.719 158.204 193.737 156.553 195.902 155.109L192.724 149.163C189.624 144.973 185.046 146.994 181.845 141.384C177.251 133.332 186.52 129.131 190.445 127.765C192.906 125.591 195.733 123.869 198.794 122.679C198.002 122.312 197.336 121.717 196.884 120.97C196.431 120.224 196.211 119.359 196.252 118.487C196.293 117.614 196.594 116.774 197.115 116.073C197.636 115.372 198.354 114.843 199.177 114.552C200.001 114.261 200.892 114.223 201.738 114.441C202.583 114.659 203.345 115.125 203.924 115.778C204.504 116.431 204.876 117.242 204.992 118.108C205.109 118.973 204.964 119.854 204.578 120.637C207.71 119.64 210.994 119.205 214.278 119.352C218.187 117.952 228.039 115.405 229.519 124.552C230.549 130.927 225.719 132.225 225.934 137.437L226.787 141.918C228.661 141.691 230.553 141.645 232.436 141.779C234.123 141.931 235.779 142.328 237.352 142.958C239.532 143.732 242.475 141.569 245.126 140.476C247.784 139.407 249.391 139.256 250.626 145.251C250.961 147.077 250.862 148.956 250.336 150.737C249.811 152.517 248.873 154.149 247.6 155.5L251.554 160.658C255.554 165.853 263.061 170.058 265.748 178.537C267.488 184.029 269.271 190.946 269.456 196.869H273.813C273.049 196.078 272.612 195.027 272.591 193.928V192.159C272.585 192.131 272.585 188.593 272.585 188.593C272.584 185.721 273.722 182.966 275.749 180.932C277.777 178.898 280.528 177.751 283.4 177.743H290.189C293.061 177.752 295.813 178.901 297.84 180.936C299.866 182.971 301.003 185.728 301 188.6V192.138C300.994 192.166 300.994 193.938 300.994 193.938C300.973 195.037 300.536 196.088 299.772 196.879H396.072C395.308 196.088 394.871 195.037 394.85 193.938V192.169C394.844 192.141 394.844 188.603 394.844 188.603C394.842 185.731 395.979 182.976 398.006 180.941C400.032 178.906 402.783 177.758 405.655 177.749H412.444C415.314 177.76 418.064 178.908 420.089 180.942C422.115 182.976 423.251 185.73 423.25 188.6V192.138C423.244 192.166 423.244 193.938 423.244 193.938C423.223 195.037 422.786 196.088 422.022 196.879H431.522V219.225C434.954 220.14 444.768 220.963 450.691 219.783C452.601 215.667 454.725 211.654 457.055 207.76C457.055 207.76 446.143 206.585 447.764 193.685C446.191 191.96 446.436 188.243 446.788 184.143C447.404 177.349 445.679 176.037 445.711 172.391C445.669 170.8 445.949 169.216 446.533 167.735C447.117 166.254 447.994 164.906 449.111 163.772C449.786 161.48 450.663 159.253 451.732 157.116C452.975 155.016 454.532 153.118 456.351 151.491V151.459C455.707 149.919 455.435 148.248 455.556 146.583C455.678 144.918 456.19 143.305 457.051 141.874C459.993 137.223 461.296 137.86 463.193 139.602C464.834 141.217 466.676 142.613 468.673 143.758L469.905 137.286C470.118 132.074 465.29 130.776 466.32 124.401C467.8 115.248 477.652 117.801 481.561 119.201C484.845 119.053 488.129 119.488 491.261 120.486C490.872 119.702 490.726 118.819 490.842 117.951C490.957 117.083 491.329 116.269 491.91 115.614C492.491 114.959 493.253 114.492 494.101 114.272C494.949 114.053 495.842 114.091 496.668 114.383C497.494 114.674 498.214 115.206 498.736 115.908C499.258 116.611 499.558 117.454 499.599 118.329C499.639 119.203 499.418 120.07 498.963 120.818C498.508 121.566 497.84 122.162 497.045 122.528C500.106 123.718 502.933 125.439 505.394 127.614C509.315 128.979 518.584 133.181 513.994 141.233C510.794 146.843 506.22 144.822 503.114 149.012L501.642 151.768C505.552 152.408 515.454 154.563 514.403 161.934C513.638 167.304 508.07 166.454 505.292 168.334C505.188 173.771 504.031 179.137 501.886 184.134C500.231 188.648 495.81 192.429 493.294 195.534C491.328 198.041 490.134 201.067 489.857 204.241C488.969 211.258 496.445 217.301 501.314 221.597C511.176 230.297 515.572 242.885 520.102 251.027C524.713 257.431 530.527 262.877 537.219 267.06C538.493 267.848 539.737 268.612 540.951 269.351C552.351 276.322 561.051 281.673 564.399 290.915C569.724 289.515 572.454 285.924 572.499 280.22C572.606 267.72 562.977 258.62 552.782 248.997C541.702 238.535 530.246 227.717 530.246 211.489C530.246 205.289 531.803 194.434 542.233 191.425C549.959 189.198 559.333 192.361 564.404 197.019C564.511 197.108 564.596 197.194 564.69 197.284L565.149 197.733C578.072 210.417 571.218 214.624 581.828 220.751C570.835 223.295 569.681 208.807 564.413 201.32C564.213 201.049 564.013 200.77 563.787 200.493L563.578 200.244C563.397 200.031 563.205 199.82 563 199.613C562.938 199.55 562.878 199.483 562.814 199.421C558.539 195.253 549.72 192.232 543.023 194.165C536.529 196.038 533.097 202.029 533.097 211.489C533.097 226.489 544.097 236.877 554.74 246.923C564.931 256.546 575.468 266.497 575.351 280.245C575.292 287.198 571.705 291.884 565.208 293.645C565.421 294.553 565.585 295.472 565.699 296.397C565.833 297.516 565.913 298.597 565.972 299.668C568.441 298.669 570.77 297.352 572.898 295.751C578.398 291.558 581.192 286.196 581.192 279.811C581.192 265.562 568.94 254.079 557.092 242.973C545.965 232.545 535.454 222.694 535.454 211.004C535.454 202.171 539.031 198.696 542.031 197.336C543.898 196.538 545.95 196.276 547.958 196.58C572.641 197.393 561.621 227.672 584.885 224.809C562.81 235.293 557.478 220.902 556.435 216.063C555.276 210.689 552.929 203.683 550.742 201.571C549.515 200.336 547.916 199.54 546.191 199.307C545.164 199.31 544.149 199.523 543.208 199.934C539.991 201.376 538.3 205.2 538.3 210.993ZM497.852 143.482C498.124 143.656 498.39 143.83 498.643 144.005C499.458 144.527 500.237 145.101 500.977 145.724C502.253 145.762 503.83 144.889 505.477 144.185C507.667 142.922 509.756 142.038 510.727 139.085C511.986 135.25 509.548 132.518 507.627 131.048C507.796 131.609 507.867 132.194 507.837 132.779C507.486 139.315 500.946 139.582 497.848 143.482H497.852ZM489.763 139.501C491.831 140.294 493.846 141.219 495.796 142.27C496.973 140.053 498.434 138 500.144 136.162C502.895 133.472 504.555 131.468 500.221 127.88C498.622 126.485 496.929 125.201 495.154 124.038C495.28 126.384 495.071 128.736 494.532 131.023C493.849 133.405 491.439 137.1 489.759 139.5L489.763 139.501ZM480.269 129.145C480.464 131.659 480.428 134.186 480.162 136.694C482.193 137.088 484.199 137.603 486.169 138.235C486.298 134.984 486.87 131.767 487.869 128.671C488.778 126.51 490.072 124.532 491.688 122.833C489.601 122.632 487.502 122.571 485.407 122.651C479.779 122.723 479.813 125.325 480.265 129.145H480.269ZM471.077 132.04C471.922 133.625 472.6 135.295 473.618 136.066C474.586 136.045 475.555 136.087 476.518 136.192C476.933 136.224 477.346 136.266 477.759 136.316C477.383 131.534 472.739 126.762 476.402 121.679C476.745 121.205 477.168 120.793 477.652 120.463C475.237 120.403 471.624 120.999 470.197 124.775C469.09 127.682 470.162 129.682 471.073 132.04H471.077ZM462.477 146.95C462.956 146.819 465.037 145.123 467.363 144.758C465.083 143.644 463.162 141.912 461.82 139.758C461.239 142.631 458.618 145.9 462.472 146.95H462.477ZM458.138 194.774C458.62 194.003 458.921 193.133 459.017 192.229C459.114 191.325 459.005 190.411 458.697 189.556C457.619 186.75 455.82 185.411 455.915 183.802C456.015 182.215 457.857 181.14 459.763 179.211C461.669 177.282 463.435 173.262 462.506 171.372C462.108 170.387 461.499 169.501 460.722 168.777C459.944 168.053 459.017 167.508 458.006 167.182C455.762 166.436 455.126 165.266 456.123 163.621C457.104 161.921 459.701 162.099 461.47 163.757C463.17 165.429 465.885 169.133 464.976 173.545C464.025 177.973 461.276 181.14 459.701 183.069C458.085 184.958 460.201 187.506 463.79 188.314C467.4 189.175 469.632 188.875 470.055 188.383C470.455 187.891 470.398 184.799 470.964 181.303C471.57 177.803 476.914 174.184 481.251 174.303C485.6 174.365 488.251 175.355 487.304 178.473C484.831 182.473 479.885 177.74 479.885 177.74C479.885 177.74 475.656 179.913 474.164 183.305C472.74 186.755 473.219 190.252 471.108 190.848C469.049 191.411 464.256 189.883 463.008 191.486C462.136 192.685 461.543 194.065 461.274 195.523C461.274 195.523 468.005 205.453 474.802 201.606C477.593 200.027 481.416 193.87 485.929 191.691C490.913 189.286 496.729 186.041 496.729 178.86C496.729 178.543 496.619 175.932 496.614 175.022C496.299 169.81 497.788 168.653 498.433 167.805C500.395 165.227 501.312 164.626 501.226 160.356C504.842 158.736 510.187 156.983 513.138 161.881C515.112 154.191 502.056 153.181 499.482 153.421C498.065 153.639 498.793 155.293 498.182 155.259C497.571 155.225 496.582 154.195 495.416 153.204C492.038 150.905 488.348 149.102 484.458 147.852C479.377 146.563 474.142 145.988 468.902 146.144C466.7 146.327 464.594 147.13 462.83 148.461C461.451 149.668 459.903 150.984 458.252 152.273C456.267 153.825 454.625 155.77 453.428 157.987C452.976 158.861 452.574 159.768 452.228 160.636C455.128 158.055 457.274 157.136 458.618 157.041C459.097 157.135 459.554 157.32 459.964 157.585C459.964 157.585 453.506 160.68 451.444 164.606C449.32 168.519 450.484 174.152 451.178 177.619C451.75 180.576 451.315 183.639 449.942 186.319C448.821 188.56 447.697 191.346 450.01 193.845C452.323 196.344 458.133 194.774 458.133 194.774H458.138ZM431.5 248.156L443.446 252.138C443.446 252.138 443.602 236.738 448.912 224.02C443.11 224.525 437.268 224.31 431.519 223.381L431.5 248.156ZM443.371 256.121L431.515 252.29L431.533 277.433C433.863 274.807 439.99 268.533 444.474 263.403C443.968 260.999 443.601 258.567 443.375 256.121H443.371ZM397.668 188.6C397.668 193.079 399.553 193.762 399.725 193.056C399.852 192.311 400.13 191.6 400.54 190.965C400.951 190.331 401.486 189.787 402.114 189.366C401.951 190.684 402.02 192.02 402.32 193.313C402.697 194.426 403.075 195.203 405.649 195.203C407.617 195.203 408.279 191.863 408.74 189.603C408.806 189.28 409.005 189.303 409.073 189.636C409.537 191.885 410.538 195.049 412.438 195.206C413.09 195.346 413.772 195.227 414.338 194.875C414.905 194.522 415.313 193.963 415.475 193.316C415.774 192.023 415.844 190.687 415.681 189.369C416.843 190.124 417.659 191.308 417.953 192.662C418.387 194.053 420.419 193.056 420.419 188.603C420.423 187.552 420.219 186.511 419.82 185.539C419.421 184.567 418.834 183.684 418.092 182.939C417.351 182.195 416.47 181.604 415.499 181.201C414.529 180.798 413.489 180.59 412.438 180.59H405.649C404.598 180.588 403.557 180.794 402.586 181.197C401.615 181.599 400.733 182.189 399.991 182.934C399.249 183.678 398.662 184.562 398.263 185.535C397.865 186.507 397.662 187.549 397.668 188.6ZM275.415 188.6C275.415 193.079 277.3 193.762 277.473 193.056C277.6 192.311 277.877 191.6 278.287 190.965C278.698 190.331 279.233 189.787 279.861 189.366C279.698 190.684 279.768 192.02 280.067 193.313C280.444 194.426 280.822 195.203 283.397 195.203C285.364 195.203 286.027 191.863 286.487 189.603C286.553 189.28 286.752 189.303 286.821 189.636C287.284 191.885 288.285 195.049 290.186 195.206C290.838 195.346 291.519 195.227 292.086 194.874C292.652 194.522 293.06 193.963 293.222 193.316C293.521 192.023 293.591 190.687 293.428 189.369C294.59 190.124 295.406 191.308 295.7 192.662C296.134 194.053 298.167 193.056 298.167 188.603C298.171 187.552 297.967 186.511 297.568 185.539C297.169 184.567 296.582 183.684 295.84 182.939C295.099 182.195 294.218 181.604 293.247 181.201C292.277 180.798 291.237 180.59 290.186 180.59H283.4C282.349 180.588 281.307 180.794 280.336 181.196C279.364 181.598 278.482 182.188 277.74 182.933C276.998 183.677 276.41 184.561 276.011 185.534C275.612 186.507 275.409 187.549 275.415 188.6ZM238.761 144.217C241.039 145.51 242.541 148.092 242.988 148.417C247.414 148.83 245.965 144.405 246.488 141.191C244.6 142.873 241.75 143.769 238.761 144.214V144.217ZM218.084 136.477C218.497 136.427 218.911 136.386 219.325 136.353C220.288 136.248 221.257 136.206 222.225 136.227C223.243 135.456 223.925 133.786 224.765 132.201C225.677 129.843 226.749 127.843 225.65 124.936C224.223 121.16 220.61 120.564 218.195 120.624C218.678 120.955 219.101 121.366 219.445 121.84C223.1 126.92 218.46 131.692 218.084 136.474V136.477ZM204.149 122.994C205.765 124.693 207.058 126.671 207.968 128.832C208.967 131.928 209.539 135.145 209.668 138.396C211.638 137.764 213.644 137.249 215.675 136.855C215.409 134.347 215.373 131.82 215.568 129.306C216.02 125.486 216.054 122.884 210.428 122.813C208.333 122.731 206.236 122.791 204.149 122.991V122.994ZM195.7 136.32C197.409 138.158 198.871 140.211 200.047 142.428C201.997 141.377 204.012 140.452 206.08 139.659C204.401 137.259 201.991 133.559 201.312 131.181C200.773 128.894 200.564 126.542 200.69 124.196C198.915 125.359 197.222 126.642 195.623 128.038C191.284 131.626 192.944 133.63 195.7 136.32ZM197.2 144.163C197.453 143.988 197.719 143.814 197.991 143.64C194.891 139.74 188.353 139.473 187.998 132.94C187.968 132.355 188.039 131.77 188.207 131.209C186.29 132.679 183.852 135.409 185.107 139.246C186.077 142.198 188.167 143.082 190.356 144.346C192.009 145.046 193.586 145.924 194.862 145.885C195.603 145.261 196.384 144.685 197.2 144.163ZM193.679 159.574C195.679 159.258 199.211 160.364 194.225 166.874C189.739 172.735 185.997 179.12 186.944 188.779C187.858 198.449 191.633 203.169 188.213 212.601C184.793 222.033 189.978 233.575 189.978 233.575C189.978 233.575 192.257 227.955 193.837 222.475C197.525 237.275 205.537 244.706 205.537 244.706C205.537 244.706 203.48 237.674 207.488 223.191C210.276 244.866 234.617 242.969 248.633 254.424C254.871 259.524 260.513 266.535 264.206 271.601V196.873H266.453C265.918 192.693 265.086 188.556 263.962 184.495C261.798 176.195 257.527 168.594 251.562 162.43C244.595 155.149 244.223 153.918 242.041 149.844C239.859 145.77 236.2 143.755 231.459 143.439C226.718 143.123 211.325 145.454 193.675 159.574H193.679ZM190.64 168.746C191.534 167.646 194.865 163.789 194.659 161.736C193.126 161.26 176.965 161.576 178.906 170.521C182.691 164.737 189.439 168.642 190.636 168.746H190.64ZM181.453 320.39C204.107 329.69 199.097 355.278 198.889 358.901C198.417 367.101 205.672 368.201 211.689 374.37C219.727 382.61 227.134 391.175 228.008 391.47C230.401 391.87 249.187 394.077 250.373 393.287C244.986 381.749 219.586 372.236 214.218 361.729C211.028 355.223 209.959 347.881 211.163 340.736C212.092 334.931 217.867 303.06 181.453 320.39ZM237.668 294C236.252 293.281 234.781 292.676 233.268 292.193C203.103 307.166 190.299 297.872 176.291 318.893C176.821 318.985 177.348 319.095 177.87 319.224C180.925 316.386 184.413 314.054 188.203 312.316C196.349 308.406 204.475 307.031 214.889 303.976C222.896 301.689 230.558 298.334 237.668 294ZM427.132 337.318C426.367 337.431 425.597 337.503 424.824 337.533L424.817 365.951H398.264L398.164 365.597L396.108 358.242H368.154L368.086 358.458L367.677 359.759L367.468 360.419L367.268 361.056L365.722 365.951H332.492L332.452 365.597L332.383 364.989L332.304 364.289L331.162 354.228H303.279L301.903 365.629C301.903 365.618 301.89 365.608 301.885 365.597C301.785 365.386 301.661 365.19 301.545 364.989C301.406 364.749 301.256 364.515 301.096 364.289C300.95 364.078 300.795 363.872 300.632 363.674C300.43 363.443 300.215 363.224 299.988 363.017C299.731 362.776 299.459 362.551 299.174 362.343C298.856 362.109 298.522 361.897 298.174 361.71H298.168C296.956 361.035 295.589 360.686 294.202 360.697C292.809 360.696 291.437 361.044 290.213 361.71H290.207C289.856 361.897 289.518 362.108 289.197 362.343C288.909 362.55 288.634 362.776 288.374 363.017C288.155 363.225 287.948 363.445 287.751 363.674C287.584 363.871 287.427 364.076 287.28 364.289C287.113 364.515 286.958 364.748 286.814 364.989C286.701 365.189 286.602 365.389 286.503 365.597C286.445 365.717 286.375 365.829 286.321 365.951H270.985V337.693C270.21 337.661 269.437 337.587 268.669 337.473V384.19C268.669 396.353 276.333 402.309 287.451 402.309H408.351C419.469 402.309 427.134 396.353 427.134 384.19V352.5L427.132 337.318ZM309.917 338.928L309.883 339.565L309.849 340.222L309.783 341.5L309.748 342.154L309.715 342.808L309.679 343.478L309.646 344.129L309.613 344.756V344.786H324.895V344.756L324.001 325.215H310.631V325.257L309.953 338.261L309.917 338.928ZM324.504 324.128V319.228H309.941V324.128H324.504ZM307.831 346.437L307.785 346.754L307.694 347.375L307.494 348.686L307.401 349.32L307.301 349.98L307.201 350.634L307.101 351.308L307.008 351.945L306.918 352.569L306.864 352.939H327.555L327.445 351.945L327.302 350.634L326.842 346.437H307.831ZM367.18 353.86V356.978H397.352V353.86H367.18ZM395.219 352.419V346.437H369.524V352.419H395.219ZM514.381 320.233C477.967 302.903 483.743 334.774 484.667 340.576C485.871 347.721 484.802 355.063 481.612 361.569C476.244 372.076 450.844 381.589 445.457 393.127C446.643 393.917 465.429 391.707 467.822 391.309C468.696 391.018 476.102 382.452 484.141 374.209C490.162 368.037 497.418 366.938 496.946 358.74C496.737 355.12 491.728 329.535 514.381 320.232V320.233ZM519.538 318.733C504.395 300.551 495.397 300.924 465.644 282.333C465.644 282.333 463.582 283.45 460.489 285.512C467.855 292.282 498.466 299.775 517.959 319.062C518.543 318.92 519.073 318.813 519.538 318.732V318.733ZM562.25 327.373C561.143 323.552 561.681 319.197 562.305 314.153C562.932 309.074 563.644 303.318 562.859 296.724C561.494 285.256 552.248 279.601 539.451 271.775C538.234 271.03 536.986 270.263 535.707 269.475C530.448 266.221 520.278 256.657 519.152 255.575C512.465 249.139 510.252 236.448 502.052 228.168C499.019 225.212 496.186 222.057 493.573 218.724C484.293 208.299 487.042 200.065 489.534 196.241C491.059 193.941 494.174 191 493.787 190.613C493.593 190.419 491.913 192.059 490.265 193.019C488.167 194.065 486.241 195.425 484.554 197.052L481.424 200.006C477.36 203.747 469.157 211.553 458.988 197.631C456.497 198.36 453.835 198.234 451.424 197.274C452.452 206.124 459.124 205.165 466.448 205.832C464.593 206.686 462.63 207.284 460.614 207.609C458.766 213.902 444.714 228.809 447.69 259.509L450.433 255.839C450.122 234.754 456.417 223.462 463.333 213.582C463.37 213.531 463.424 213.496 463.485 213.484C463.547 213.471 463.61 213.483 463.664 213.515C463.717 213.548 463.756 213.599 463.773 213.66C463.79 213.72 463.784 213.784 463.755 213.84C457.44 227.067 454.604 236.095 456.189 247.271C463.218 234.19 466.541 231.555 470.889 230.266C458.818 240.63 463.242 248.138 445.247 269.294L433.605 282.957L431.548 285.35C429.767 287.392 428.148 289.174 427.135 290.231V201.012H268.669L268.626 293.473C268.626 293.473 266.963 290.473 264.202 286.104L261.096 281.332C254.524 271.532 244.596 258.632 235.225 253.878C227.706 250.066 218.964 249.692 208.973 238.837C208.138 243.528 210.508 251.51 210.508 251.51C210.508 251.51 198.496 248.744 193.58 233.71C192.332 238.31 191.38 243.922 182.374 248.781C178.436 254.554 173.44 259.528 167.649 263.44C165.356 265.722 162.854 267.785 160.177 269.601L153.233 274.162C142.194 281.289 134.219 286.438 132.976 296.881C132.191 303.475 132.902 309.231 133.53 314.309C134.153 319.353 134.692 323.709 133.584 327.53C132.334 331.846 127.035 336.679 122.778 340.563C121.011 342.058 119.368 343.693 117.866 345.454C116.757 347.015 117.124 351.274 117.754 355.611C118.903 353.515 120.651 351.809 122.774 350.711C122.979 350.601 123.213 350.558 123.444 350.587C123.674 350.617 123.89 350.718 124.06 350.876C124.231 351.035 124.347 351.242 124.394 351.47C124.44 351.698 124.415 351.935 124.32 352.147C121.898 357.518 120.285 363.219 119.533 369.063C119.597 370.791 119.599 372.674 119.6 374.64C119.606 380.098 119.611 386.283 121.1 389.255C121.721 390.406 122.491 391.471 123.389 392.422C123.819 392.86 124.279 393.268 124.767 393.641C126.597 394.801 128.579 395.7 130.657 396.312C131.588 396.606 132.492 396.982 133.357 397.435C133.604 397.551 133.851 397.661 134.096 397.79C137.051 399.334 139.189 400.533 141.388 400.997C142.913 401.294 144.489 401.177 145.954 400.66C146.104 400.605 146.241 400.545 146.38 400.485C148.472 399.314 149.3 397.135 151.202 397.135C151.45 397.101 151.702 397.106 151.949 397.15L152.011 397.159C154.198 397.269 156.072 397.705 157.019 396.514C157.336 396.126 157.583 395.686 157.75 395.214L157.829 394.834C158.154 391.479 156.041 391.122 150.218 389.17C144.403 387.25 133.088 386.336 131.826 376.47C130.602 366.562 129.169 357.354 138.57 348.708C147.943 340.065 162.233 341.475 168.262 318.174C174.429 290.757 188.216 286.499 188.216 286.499C182.524 293.118 178.876 301.247 177.716 309.9C190.83 296.4 207.63 298.769 223.787 287.847C206.32 276.585 219.666 253.438 219.666 253.438C219.666 253.438 223.943 270.948 235.755 277.838C242.119 281.478 247.599 286.482 251.8 292.491C254.222 296.01 256.084 299.883 257.319 303.973C259.879 312.498 260.134 322.849 264.206 328.119C265.314 329.609 266.885 330.69 268.673 331.192C269.428 331.402 270.206 331.521 270.989 331.549C271.03 331.549 271.068 331.557 271.109 331.558C271.609 331.574 272.109 331.579 272.609 331.567C274.519 331.523 277.493 331.367 278.493 329.376C279.157 328.054 278.568 326.493 278.139 325.192L276.648 320.534C275.198 316.154 273.602 306.691 273.496 306.518L316.244 306.524L316.221 306.589V310.031L315.829 310.276L309.941 313.963H312.249V317.837H322.387V313.963H324.5L322.8 312.868L321.788 312.218L319.769 310.92L318.769 310.279L318.302 309.979V306.59L318.279 306.525H355.008C355.008 306.519 419.208 306.519 419.208 306.519H420.022L422.067 306.507C421.908 306.943 419.483 319.268 419.185 320.383C418.764 321.959 418.205 323.493 417.694 325.041C417.265 326.341 416.676 327.903 417.34 329.225C418.34 331.216 421.314 331.372 423.224 331.416C423.724 331.428 424.224 331.423 424.724 331.407C424.757 331.407 424.787 331.407 424.824 331.4C425.602 331.373 426.374 331.256 427.124 331.05C428.897 330.561 430.46 329.501 431.57 328.035C435.694 322.787 435.942 312.385 438.513 303.821C439.871 299.331 441.981 295.105 444.753 291.321C448.864 285.769 454.08 281.128 460.073 277.69C471.885 270.803 492.015 263.07 495.452 239.699C497.17 255.623 488.463 268.225 473.112 278.65C484.667 289.35 502.521 292.827 518.479 311.731C517.335 302.412 513.569 293.61 507.619 286.347C507.619 286.347 521.405 290.605 527.573 318.022C533.602 341.322 547.892 339.913 557.265 348.556C566.665 357.202 565.232 366.41 564.009 376.318C562.747 386.184 551.432 387.098 545.617 389.018C539.793 390.969 537.681 391.327 538.006 394.682L538.085 395.065C538.252 395.537 538.5 395.977 538.816 396.365C539.763 397.556 541.637 397.12 543.824 397.01L543.886 397.001C544.127 396.957 544.373 396.952 544.616 396.986C546.535 396.986 547.363 399.165 549.455 400.336C549.593 400.396 549.731 400.456 549.881 400.511C551.345 401.028 552.921 401.145 554.446 400.848C556.646 400.384 558.783 399.185 561.739 397.64C561.984 397.512 562.231 397.402 562.477 397.285C563.342 396.833 564.246 396.457 565.177 396.163C567.255 395.551 569.238 394.651 571.067 393.491C571.554 393.119 572.014 392.712 572.443 392.275C573.342 391.323 574.112 390.258 574.734 389.106C576.219 386.135 576.225 379.951 576.234 374.494L576.302 368.916C575.55 363.071 573.937 357.37 571.515 351.998C571.42 351.786 571.394 351.549 571.44 351.321C571.487 351.093 571.604 350.885 571.774 350.727C571.945 350.569 572.16 350.468 572.391 350.438C572.622 350.409 572.856 350.453 573.061 350.563C575.184 351.661 576.932 353.367 578.081 355.463C578.711 351.125 579.081 346.863 577.969 345.305C576.466 343.544 574.823 341.909 573.056 340.414C568.8 336.521 563.5 331.688 562.25 327.373ZM579.707 602.084C579.881 602.635 579.693 602.911 579.143 602.91H573.236C573.06 602.925 572.884 602.876 572.741 602.773C572.598 602.669 572.496 602.518 572.455 602.346L570.717 597.612H557.732L556 602.345C555.952 602.522 555.842 602.676 555.691 602.779C555.539 602.882 555.356 602.928 555.174 602.909H549.354C548.747 602.909 548.559 602.634 548.79 602.083L560.125 573.073C560.173 572.896 560.282 572.742 560.433 572.639C560.585 572.535 560.768 572.489 560.95 572.508H567.464C567.652 572.483 567.844 572.527 568.003 572.63C568.162 572.734 568.28 572.891 568.334 573.073L579.707 602.084ZM568.416 591.4L564.29 580.2H564.16L560.034 591.4H568.416ZM496.463 457.909C496.886 457.909 497.305 457.826 497.695 457.664C498.086 457.502 498.441 457.265 498.74 456.966C499.039 456.667 499.276 456.312 499.438 455.921C499.6 455.531 499.683 455.112 499.683 454.689V431.551C499.683 431.128 499.6 430.709 499.438 430.319C499.276 429.928 499.039 429.573 498.74 429.274C498.441 428.975 498.086 428.738 497.695 428.576C497.305 428.414 496.886 428.331 496.463 428.331H431.163C430.309 428.331 429.49 428.67 428.886 429.274C428.282 429.878 427.942 430.697 427.942 431.551V552.035C427.942 552.889 428.282 553.708 428.886 554.312C429.49 554.916 430.309 555.255 431.163 555.255H455.156C456.01 555.255 456.829 554.916 457.433 554.312C458.037 553.708 458.376 552.889 458.376 552.035V506.925H494.231C495.085 506.925 495.904 506.585 496.508 505.981C497.112 505.377 497.451 504.558 497.451 503.704V481.425C497.451 480.571 497.112 479.752 496.508 479.148C495.904 478.544 495.085 478.205 494.231 478.205H458.378V457.905L496.463 457.909ZM470.963 572.509H465.363C465.268 572.495 465.171 572.504 465.08 572.534C464.989 572.565 464.907 572.616 464.839 572.684C464.772 572.752 464.721 572.835 464.691 572.926C464.662 573.017 464.654 573.114 464.668 573.209V590.1C464.668 592.387 464.19 594.066 463.235 595.137C462.678 595.701 462.004 596.136 461.262 596.414C460.519 596.691 459.725 596.804 458.935 596.744C458.148 596.805 457.357 596.693 456.618 596.415C455.879 596.137 455.21 595.701 454.658 595.137C453.717 594.066 453.247 592.387 453.246 590.1V573.2C453.246 572.733 453 572.5 452.508 572.5H446.908C446.813 572.486 446.716 572.495 446.625 572.525C446.534 572.556 446.452 572.607 446.384 572.675C446.317 572.743 446.266 572.826 446.236 572.917C446.207 573.008 446.199 573.105 446.213 573.2V590.571C446.213 594.682 447.321 597.86 449.536 600.103C451.751 602.346 454.885 603.468 458.936 603.469C462.99 603.469 466.132 602.347 468.361 600.103C470.59 597.859 471.705 594.682 471.705 590.571V573.2C471.702 572.739 471.454 572.508 470.962 572.508L470.963 572.509Z" fill="url(#paint0_linear_2302_2090)"/>
</g>
<defs>
<linearGradient id="paint0_linear_2302_2090" x1="62.992" y1="31.425" x2="633.752" y2="665.318" gradientUnits="userSpaceOnUse">
<stop offset="1" stop-color="white"/>
</linearGradient>
<clipPath id="clip0_2302_2090">
<rect width="696.744" height="696.744" fill="white"/>
</clipPath>
</defs>
</svg>
